<svg id="Capa_1" data-name="Capa 1" xmlns="http://www.w3.org/2000/svg" viewBox="0 0 1080 1080"><path d="M687.94,605.21l-.14,0c-2.32-.66-18.23,17.83-20.59,20.14-7.08,6.93-17,14.11-22.19,22.42,18.71,12.95,52.09,13.66,73.91,11.64,25.5-2.37,50.51-11.31,70.73-27.21,31.19-24.51,50.18-63.19,84.49-83.1l-20-24.69c-37.5,21-62.61,61.19-102.44,77.38A99,99,0,0,1,687.94,605.21Z"/><path d="M666.91,405.15A95.45,95.45,0,0,0,522,457.61c-10.24,35,1.31,73.95,16,107.39,30-8.36,53.53-30.55,60-61,1.83-8.62,5.29-25.11,14-24.12,5.22.6,8.66,6.3,8.52,11.56s-2.91,10-5.82,14.43c-23.08,34.78-61.5,60.32-103.16,62.92a106.72,106.72,0,0,1-20.6-.73c-34.67-4.58-67.38-25.71-81.78-57.48-7.86-17.32-10.48-37.2-21.74-52.54-12.2-16.61-33.31-25.31-53.92-25.4-39.73-.16-87.46,28.68-96.05,69.57-4.93,23.43,4.36,47.63,17,67.94,22.37,35.87,55.4,64.22,91.78,85.73,42.3,25,90.55,41.54,139.69,41.19,62.53-.45,123.37-28.8,167.91-72.68C683.8,595,707.35,557.31,712.5,515.68S701.73,428.55,666.91,405.15ZM331.74,531.4c-35.48,15.18-71.51,10.5-80.49-10.47s12.51-50.28,48-65.46,71.51-10.5,80.49,10.47S367.22,516.22,331.74,531.4Z"/></svg>